<svg width="120" height="120" viewBox="0 0 120 120" fill="none" xmlns="http://www.w3.org/2000/svg">
<rect width="120" height="120" fill="white"/>
<path d="M77.6777 77.6777C73.5878 81.7675 68.2065 84.3127 62.4504 84.8796C56.6944 85.4465 50.9199 84.0001 46.1107 80.7867C41.3016 77.5734 37.7555 72.7919 36.0765 67.2571C35.3575 64.8869 35 62.4414 35 60M35 60C35 56.7404 35.6375 53.4882 36.903 50.4329C39.1164 45.0893 43.1142 40.6785 48.2151 37.952C53.316 35.2255 59.2045 34.352 64.8773 35.4804C70.55 36.6087 75.656 39.6692 79.3253 44.1402C82.9945 48.6112 85 54.2161 85 60H35Z" stroke="black"/>
</svg>
