<svg width="120" height="120" viewBox="0 0 120 120" fill="none" xmlns="http://www.w3.org/2000/svg">
<rect width="120" height="120" fill="white"/>
<path d="M72 11C70.4243 11 68.864 11.3102 67.4082 11.9131C65.9523 12.5161 64.629 13.4003 63.5146 14.5146C62.4003 15.629 61.5161 16.9523 60.9131 18.4082C60.3102 19.864 60 21.4243 60 23V47H72V48H60V110H59V48H47V47H59V22.5H59.0107C59.0699 20.9636 59.3999 19.4484 59.9893 18.0254C60.6426 16.4482 61.6005 15.0148 62.8076 13.8076C64.0148 12.6005 65.4482 11.6426 67.0254 10.9893C68.6025 10.336 70.2929 10 72 10V11Z" fill="black"/>
</svg>
