<svg width="120" height="120" viewBox="0 0 120 120" fill="none" xmlns="http://www.w3.org/2000/svg">
<rect width="120" height="120" fill="white"/>
<path d="M85 35C85 48.8071 73.8071 60 60 60C46.1929 60 35 48.8071 35 35C35 21.1929 46.1929 10 60 10C73.8071 10 85 21.1929 85 35ZM85 35V85C85 88.283 84.3534 91.5339 83.097 94.5671C81.8406 97.6002 79.9991 100.356 77.6777 102.678C75.3562 104.999 72.6002 106.841 69.5671 108.097C66.5339 109.353 63.283 110 60 110C56.717 110 53.4661 109.353 50.4329 108.097C47.3998 106.841 44.6438 104.999 42.3223 102.678C40.0009 100.356 38.1594 97.6002 36.903 94.5671C35.6466 91.5339 35 88.283 35 85" stroke="black"/>
</svg>
