<svg width="120" height="120" viewBox="0 0 120 120" fill="none" xmlns="http://www.w3.org/2000/svg">
<rect width="120" height="120" fill="white"/>
<path d="M10 97V22M110 97V47C110 40.3696 107.366 34.0107 102.678 29.3223C97.9893 24.6339 91.6304 22 85 22C78.3696 22 72.0107 24.6339 67.3223 29.3223C62.6339 34.0107 60 40.3696 60 47M60 97V47M60 47C60 40.3696 57.3661 34.0107 52.6777 29.3223C47.9893 24.6339 41.6304 22 35 22C28.3696 22 22.0107 24.6339 17.3223 29.3223C12.6339 34.0107 10 40.3696 10 47" stroke="black"/>
</svg>
