<svg width="120" height="120" viewBox="0 0 120 120" fill="none" xmlns="http://www.w3.org/2000/svg">
<rect width="120" height="120" fill="white"/>
<path d="M59.75 59.5C56.0416 59.5 52.4165 58.4003 49.3331 56.3401C46.2496 54.2798 43.8464 51.3514 42.4273 47.9253C41.0081 44.4992 40.6368 40.7292 41.3603 37.0921C42.0838 33.4549 43.8695 30.114 46.4918 27.4918C49.114 24.8695 52.4549 23.0838 56.0921 22.3603C59.7292 21.6368 63.4992 22.0081 66.9253 23.4273C70.3514 24.8464 73.2798 27.2496 75.3401 30.3331C77.4003 33.4165 78.5 37.0416 78.5 40.75" stroke="black"/>
<path d="M41 78.25C41 81.9584 42.0997 85.5835 44.1599 88.6669C46.2202 91.7504 49.1486 94.1536 52.5747 95.5728C56.0008 96.9919 59.7708 97.3632 63.4079 96.6397C67.0451 95.9163 70.386 94.1305 73.0083 91.5083C75.6305 88.886 77.4163 85.5451 78.1397 81.908C78.8632 78.2708 78.4919 74.5008 77.0727 71.0747C75.6536 67.6486 73.2504 64.7202 70.1669 62.66C67.0835 60.5997 63.4584 59.5 59.75 59.5" stroke="black"/>
</svg>
