<svg width="120" height="120" viewBox="0 0 120 120" fill="none" xmlns="http://www.w3.org/2000/svg">
<rect width="120" height="120" fill="white"/>
<path d="M59.5 60C57.0277 60 54.611 59.2669 52.5554 57.8934C50.4998 56.5199 48.8976 54.5676 47.9515 52.2835C47.0054 49.9995 46.7579 47.4861 47.2402 45.0614C47.7225 42.6366 48.913 40.4093 50.6612 38.6612C52.4093 36.913 54.6366 35.7225 57.0614 35.2402C59.4861 34.7579 61.9995 35.0054 64.2835 35.9515C66.5676 36.8976 68.5199 38.4998 69.8934 40.5554C71.2669 42.611 72 45.0277 72 47.5" stroke="black"/>
<path d="M47 72.5C47 74.9723 47.7331 77.389 49.1066 79.4446C50.4801 81.5002 52.4324 83.1024 54.7165 84.0485C57.0005 84.9946 59.5139 85.2421 61.9386 84.7598C64.3634 84.2775 66.5907 83.087 68.3388 81.3388C70.087 79.5907 71.2775 77.3634 71.7598 74.9386C72.2421 72.5139 71.9946 70.0005 71.0485 67.7165C70.1024 65.4324 68.5002 63.4801 66.4446 62.1066C64.389 60.7331 61.9723 60 59.5 60" stroke="black"/>
</svg>
