<svg width="120" height="120" viewBox="0 0 120 120" fill="none" xmlns="http://www.w3.org/2000/svg">
<rect width="120" height="120" fill="white"/>
<path d="M85 60C85 63.283 84.3534 66.5339 83.097 69.5671C81.8406 72.6002 79.9991 75.3562 77.6777 77.6777C75.3562 79.9991 72.6002 81.8406 69.5671 83.097C66.5339 84.3534 63.283 85 60 85C56.717 85 53.4661 84.3534 50.4329 83.097C47.3998 81.8406 44.6438 79.9991 42.3223 77.6777C40.0009 75.3562 38.1594 72.6002 36.903 69.5671C35.6466 66.5339 35 63.283 35 60L35 35M85 60V35M85 60V85" stroke="black"/>
</svg>
