<svg width="120" height="120" viewBox="0 0 120 120" fill="none" xmlns="http://www.w3.org/2000/svg">
<rect width="120" height="120" fill="white"/>
<path d="M35 60V110H60C66.6304 110 72.9893 107.366 77.6777 102.678C82.3661 97.9893 85 91.6304 85 85C85 78.3696 82.3661 72.0107 77.6777 67.3223C72.9893 62.6339 66.6304 60 60 60M35 60V10H60C66.6304 10 72.9893 12.6339 77.6777 17.3223C82.3661 22.0107 85 28.3696 85 35C85 41.6304 82.3661 47.9893 77.6777 52.6777C72.9893 57.3661 66.6304 60 60 60M35 60H60" stroke="black"/>
</svg>
