<svg width="120" height="120" viewBox="0 0 120 120" fill="none" xmlns="http://www.w3.org/2000/svg">
<rect width="120" height="120" fill="white"/>
<path d="M60 60C55.0555 60 50.222 58.5338 46.1107 55.7867C41.9995 53.0397 38.7952 49.1352 36.903 44.5671C35.0108 39.9989 34.5157 34.9723 35.4804 30.1227C36.445 25.2732 38.826 20.8186 42.3223 17.3223C45.8186 13.826 50.2732 11.445 55.1227 10.4804C59.9723 9.51574 64.9989 10.0108 69.5671 11.903C74.1352 13.7952 78.0397 16.9995 80.7867 21.1107C83.5338 25.222 85 30.0555 85 35" stroke="black"/>
<path d="M35 85C35 89.9445 36.4662 94.778 39.2133 98.8893C41.9603 103 45.8648 106.205 50.4329 108.097C55.0011 109.989 60.0277 110.484 64.8773 109.52C69.7268 108.555 74.1814 106.174 77.6777 102.678C81.174 99.1814 83.555 94.7268 84.5196 89.8773C85.4843 85.0277 84.9892 80.0011 83.097 75.4329C81.2048 70.8648 78.0005 66.9603 73.8893 64.2133C69.778 61.4662 64.9445 60 60 60" stroke="black"/>
</svg>
