<svg width="120" height="120" viewBox="0 0 120 120" fill="none" xmlns="http://www.w3.org/2000/svg">
<rect width="120" height="120" fill="white"/>
<path d="M60 60C64.9445 60 69.778 58.5338 73.8893 55.7867C78.0005 53.0397 81.2048 49.1352 83.097 44.5671C84.9892 39.9989 85.4843 34.9723 84.5196 30.1227C83.555 25.2732 81.174 20.8186 77.6777 17.3223C74.1814 13.826 69.7268 11.445 64.8773 10.4804C60.0277 9.51574 55.0011 10.0108 50.4329 11.903C45.8648 13.7952 41.9603 16.9995 39.2133 21.1107C36.4662 25.222 35 30.0555 35 35" stroke="black"/>
<path d="M35 85C35 89.9445 36.4662 94.778 39.2133 98.8893C41.9603 103 45.8648 106.205 50.4329 108.097C55.0011 109.989 60.0277 110.484 64.8773 109.52C69.7268 108.555 74.1814 106.174 77.6777 102.678C81.174 99.1814 83.555 94.7268 84.5196 89.8773C85.4843 85.0277 84.9892 80.0011 83.097 75.4329C81.2048 70.8648 78.0005 66.9603 73.8893 64.2133C69.778 61.4662 64.9445 60 60 60" stroke="black"/>
</svg>
